<svg width="22" height="22" xmlns="http://www.w3.org/2000/svg"><path fill-rule="evenodd" clip-rule="evenodd" d="M5.124 1.757A5.18 5.18 0 018.75.283h2.75a.55.55 0 01.55.55V4.43a.55.55 0 01-.55.55H8.75c-.1 0-.195.039-.263.106a.34.34 0 00-.104.242v2.147H11.5a.55.55 0 01.533.686l-.917 3.595a.55.55 0 01-.533.414h-2.2v6.64a.55.55 0 01-.55.55H4.167a.55.55 0 01-.55-.55v-6.64h-2.2a.55.55 0 01-.55-.55V8.024a.55.55 0 01.55-.55h2.2V5.327a5 5 0 011.507-3.57zm3.626-.374a4.08 4.08 0 00-2.856 1.16 3.9 3.9 0 00-1.177 2.784v2.697a.55.55 0 01-.55.55h-2.2v2.495h2.2a.55.55 0 01.55.55v6.64h2.566v-6.64a.55.55 0 01.55-.55h2.323l.636-2.495H7.833a.55.55 0 01-.55-.55V5.327c0-.387.158-.757.434-1.028.276-.27.647-.42 1.033-.42h2.2V1.383h-2.2z"/></svg>