<svg width="60" height="60" fill="none" xmlns="http://www.w3.org/2000/svg"><path fill="#68B738" d="M0 0h60v60H0z"/><path fill-rule="evenodd" clip-rule="evenodd" d="M36.617 15.076a1 1 0 011.09.217c.909.908 2.097 2.878 3.059 5.918C41.737 24.28 42.5 28.508 42.5 34a1 1 0 01-1 1H38v9a1 1 0 11-2 0V16a1 1 0 01.617-.924zM38 33h2.491c-.086-4.816-.786-8.512-1.632-11.186-.278-.88-.57-1.642-.859-2.295V33zM24 15a1 1 0 011 1v28a1 1 0 11-2 0V16a1 1 0 011-1z" fill="#fff"/><path fill-rule="evenodd" clip-rule="evenodd" d="M19.5 15a1 1 0 011 1v5.5c0 .557.192 1.315.7 1.917.48.566 1.315 1.083 2.8 1.083a1 1 0 110 2c-2.015 0-3.43-.733-4.326-1.792A5.068 5.068 0 0118.5 21.5V16a1 1 0 011-1z" fill="#fff"/><path fill-rule="evenodd" clip-rule="evenodd" d="M28.5 15a1 1 0 00-1 1v5.5a3.07 3.07 0 01-.7 1.917c-.48.566-1.315 1.083-2.8 1.083a1 1 0 000 2c2.014 0 3.43-.733 4.326-1.792A5.068 5.068 0 0029.5 21.5V16a1 1 0 00-1-1z" fill="#fff"/></svg>009 23.4166C21.68 23.9828 22.5145 24.5 23.9999 24.5C24.5522 24.5 24.9999 24.9477 24.9999 25.5C24.9999 26.0523 24.5522 26.5 23.9999 26.5C21.9855 26.5 20.57 25.7672 19.6741 24.7084C18.808 23.6848 18.5 22.4431 18.5 21.5V16C18.5 15.4477 18.9477 15 19.5 15Z" fill="white"/>
<path fill-rule="evenodd" clip-rule="evenodd" d="M28.5 15C27.9477 15 27.5 15.4477 27.5 16V21.5C27.5 22.0569 27.308 22.8152 26.7991 23.4166C26.32 23.9828 25.4854 24.5 23.9999 24.5C23.4476 24.5 23.0001 24.9477 23.0001 25.5C23.0001 26.0523 23.4476 26.5 23.9999 26.5C26.0144 26.5 27.43 25.7672 28.3259 24.7084C29.192 23.6848 29.5 22.4431 29.5 21.5V16C29.5 15.4477 29.0523 15 28.5 15Z" fill="white"/>
</svg>
