<svg xmlns="http://www.w3.org/2000/svg" xmlns:xlink="http://www.w3.org/1999/xlink"><defs>
<clipPath id="clip0">
<rect width="20" height="20"/>
</clipPath>
</defs><symbol id="icon-academy" viewBox="0 0 27 34">
<path d="M13.6426 0.0157537L13.5 0L0 1.40733V26.0129L13.5 34L27 26.0129V1.40733L13.6426 0.0157537ZM25.2344 25.0151L13.5 31.9573L1.76561 25.0151V14.9293L13.4507 21.8451L13.4701 23.0984L5.45351 18.3548L5.44295 19.5801L13.4894 24.3885L13.5088 25.675L5.46408 20.9174L5.45351 22.1427L13.5 26.9511L21.6239 22.1182V20.8929V16.909L25.2432 14.7595L25.2344 25.0151ZM25.2344 13.4519L22.0147 15.3319L20.5325 16.2071L13.4666 12.0201L13.456 13.2454L19.4957 16.818L19.4429 16.8495L19.3126 16.9247L18.4536 17.4166L13.4666 14.4689L13.456 15.6942L17.3921 18.0222L16.4591 18.6314L16.438 18.6436L13.4666 16.902L13.456 18.1273L15.4029 19.2615L13.4155 20.4483L1.7973 13.5762L13.4349 6.61831L25.2344 13.4519ZM25.2344 12.2266L13.4401 5.31075L1.76561 12.2196V2.9897L13.5 1.76442L25.2344 2.9897V12.2266Z"/>
</symbol><symbol id="icon-email" viewBox="0 0 19 14">
<path fill-rule="evenodd" clip-rule="evenodd" d="M-1.21593e-05 14L-1.21593e-05 6H1.29999L1.29999 14H-1.21593e-05Z"/>
<path fill-rule="evenodd" clip-rule="evenodd" d="M17 14V6H18.3V14H17Z"/>
<path fill-rule="evenodd" clip-rule="evenodd" d="M18 14H0V12.7H18V14Z"/>
<path fill-rule="evenodd" clip-rule="evenodd" d="M18 1.99995H0V0.699951H18V1.99995Z"/>
<path fill-rule="evenodd" clip-rule="evenodd" d="M9.00002 8.85308L16.7 2.86419V2.3L1.3 2.3V2.86419L9.00002 8.85308ZM0 3.5L9.00002 10.5L18 3.5V1L0 1V3.5Z"/>
</symbol><symbol id="icon-facebook" viewBox="0 0 22 22">
  <path fill-rule="evenodd" clip-rule="evenodd" d="M5.124 1.75681C6.08748 0.81207 7.39198 0.283203 8.74997 0.283203H11.5C11.8037 0.283203 12.05 0.529447 12.05 0.833203V4.42855C12.05 4.7323 11.8037 4.97855 11.5 4.97855H8.74997C8.64928 4.97855 8.55483 5.01787 8.48686 5.08452C8.41926 5.15081 8.38331 5.23839 8.38331 5.32738V7.47389H11.5C11.6698 7.47389 11.8301 7.55233 11.9343 7.68643C12.0385 7.82052 12.0749 7.99522 12.0329 8.15977L11.1163 11.7551C11.0541 11.9987 10.8347 12.1692 10.5833 12.1692H8.38331V18.8099C8.38331 19.1137 8.13706 19.3599 7.83331 19.3599H4.16664C3.86288 19.3599 3.61664 19.1137 3.61664 18.8099V12.1692H1.41664C1.11288 12.1692 0.866638 11.923 0.866638 11.6192V8.02389C0.866638 7.72013 1.11288 7.47389 1.41664 7.47389H3.61664V5.32738C3.61664 3.98606 4.16015 2.70191 5.124 1.75681ZM8.74997 1.3832C7.67682 1.3832 6.64974 1.80132 5.89414 2.54223C5.1389 3.28277 4.71664 4.28485 4.71664 5.32738V8.02389C4.71664 8.32765 4.4704 8.57389 4.16664 8.57389H1.96664V11.0692H4.16664C4.4704 11.0692 4.71664 11.3155 4.71664 11.6192V18.2599H7.28331V11.6192C7.28331 11.3155 7.52955 11.0692 7.83331 11.0692H10.1559L10.7922 8.57389H7.83331C7.52955 8.57389 7.28331 8.32765 7.28331 8.02389V5.32738C7.28331 4.9396 7.44051 4.56994 7.71672 4.2991C7.99257 4.02862 8.36444 3.87855 8.74997 3.87855H10.95V1.3832H8.74997Z"/>
</symbol><symbol id="icon-instagram" viewBox="0 0 20 20">
<path d="M9.98047 0.078125C11.6471 0.078125 13.0078 0.0976562 14.0625 0.136719C14.9609 0.175781 15.7617 0.332031 16.4648 0.605469C17.1419 0.865885 17.7279 1.24349 18.2227 1.73828C18.7174 2.23307 19.0951 2.81901 19.3555 3.49609C19.6289 4.19922 19.7852 5 19.8242 5.89844C19.8633 6.95312 19.8828 8.3138 19.8828 9.98047C19.8828 11.6471 19.8633 13.0078 19.8242 14.0625C19.7852 14.9609 19.6289 15.7617 19.3555 16.4648C19.0951 17.1419 18.7174 17.7279 18.2227 18.2227C17.7279 18.7174 17.1419 19.0951 16.4648 19.3555C15.7617 19.6289 14.9609 19.7852 14.0625 19.8242C13.0078 19.8633 11.6471 19.8828 9.98047 19.8828C8.3138 19.8828 6.95312 19.8633 5.89844 19.8242C5 19.7852 4.19922 19.6289 3.49609 19.3555C2.81901 19.0951 2.23307 18.7174 1.73828 18.2227C1.24349 17.7279 0.865885 17.1419 0.605469 16.4648C0.332031 15.7617 0.175781 14.9609 0.136719 14.0625C0.0976562 13.0078 0.078125 11.6471 0.078125 9.98047C0.078125 8.3138 0.0976562 6.95312 0.136719 5.89844C0.175781 5 0.332031 4.19922 0.605469 3.49609C0.865885 2.81901 1.24349 2.23307 1.73828 1.73828C2.23307 1.24349 2.81901 0.865885 3.49609 0.605469C4.19922 0.332031 5 0.175781 5.89844 0.136719C6.95312 0.0976562 8.3138 0.078125 9.98047 0.078125ZM9.98047 1.36719C8.2487 1.36719 6.83594 1.38672 5.74219 1.42578C5.03906 1.45182 4.38802 1.57552 3.78906 1.79687C2.85156 2.1875 2.1875 2.85156 1.79688 3.78906C1.57552 4.38802 1.45182 5.03906 1.42578 5.74219C1.38672 6.83594 1.36719 8.2487 1.36719 9.98047C1.36719 11.7122 1.38672 13.125 1.42578 14.2187C1.45182 14.9219 1.57552 15.5729 1.79688 16.1719C2.1875 17.1094 2.85156 17.7734 3.78906 18.1641C4.38802 18.3854 5.03906 18.5091 5.74219 18.5352C6.83594 18.5742 8.2487 18.5937 9.98047 18.5937C11.7122 18.5937 13.125 18.5742 14.2188 18.5352C14.9219 18.5091 15.5729 18.3854 16.1719 18.1641C17.1094 17.7734 17.7734 17.1094 18.1641 16.1719C18.3854 15.5729 18.5091 14.9219 18.5352 14.2187C18.5742 13.125 18.5938 11.7122 18.5938 9.98047C18.5938 8.2487 18.5742 6.83594 18.5352 5.74219C18.5091 5.03906 18.3854 4.38802 18.1641 3.78906C17.7734 2.85156 17.1094 2.1875 16.1719 1.79687C15.5729 1.57552 14.9219 1.45182 14.2188 1.42578C13.125 1.38672 11.7122 1.36719 9.98047 1.36719ZM9.98047 13.9453C11.0742 13.9453 12.0085 13.5579 12.7832 12.7832C13.5579 12.0085 13.9453 11.0742 13.9453 9.98047C13.9453 8.88672 13.5579 7.95247 12.7832 7.17773C12.0085 6.40299 11.0742 6.01562 9.98047 6.01562C8.88672 6.01562 7.95247 6.40299 7.17773 7.17773C6.40299 7.95247 6.01562 8.88672 6.01562 9.98047C6.01562 11.0742 6.40299 12.0085 7.17773 12.7832C7.95247 13.5579 8.88672 13.9453 9.98047 13.9453ZM9.98047 4.90234C11.3867 4.90234 12.5846 5.39713 13.5742 6.38672C14.5638 7.3763 15.0586 8.57422 15.0586 9.98047C15.0586 11.3867 14.5638 12.5846 13.5742 13.5742C12.5846 14.5638 11.3867 15.0586 9.98047 15.0586C8.57422 15.0586 7.3763 14.5638 6.38672 13.5742C5.39714 12.5846 4.90234 11.3867 4.90234 9.98047C4.90234 8.57422 5.39714 7.3763 6.38672 6.38672C7.3763 5.39713 8.57422 4.90234 9.98047 4.90234ZM16.4648 4.70703C16.4648 5.03255 16.3477 5.30924 16.1133 5.53711C15.8789 5.76497 15.5924 5.87891 15.2539 5.87891C14.9284 5.87891 14.6517 5.76497 14.4238 5.53711C14.196 5.30924 14.082 5.03255 14.082 4.70703C14.082 4.36849 14.196 4.08203 14.4238 3.84766C14.6517 3.61328 14.9284 3.49609 15.2539 3.49609C15.5794 3.49609 15.8626 3.61654 16.1035 3.85742C16.3444 4.09831 16.4648 4.38151 16.4648 4.70703Z"/>
</symbol><symbol id="icon-phone" viewBox="0 0 20 20">
<g clip-path="url(#clip0)">
<path d="M17.9 9.4H9.40002V10.6H17.9L15.8 12.7L16.7 13.6L19.8 10.5C19.8974 10.3702 19.95 10.2123 19.95 10.05C19.95 9.88772 19.8974 9.72982 19.8 9.6L16.7 6.5L15.8 7.4L17.9 9.4Z"/>
<path d="M8.09995 19.4V13.2C8.0884 13.0447 8.02148 12.8987 7.91136 12.7886C7.80125 12.6785 7.65525 12.6116 7.49995 12.6H3.09995C3.1051 12.9167 3.23318 13.2189 3.45712 13.4428C3.68106 13.6668 3.9833 13.7949 4.29995 13.8H6.79995V18.8H3.09995C2.86319 18.8149 2.62585 18.7825 2.4017 18.7048C2.17756 18.6271 1.97109 18.5057 1.7943 18.3475C1.61751 18.1893 1.47393 17.9976 1.37189 17.7834C1.26986 17.5693 1.21142 17.337 1.19995 17.1V3.10001C1.19175 2.6373 1.3651 2.18977 1.68286 1.85331C2.00062 1.51686 2.43752 1.31824 2.89995 1.30001H6.79995V6.30001H4.39995C4.0833 6.30516 3.78106 6.43324 3.55712 6.65718C3.33318 6.88112 3.2051 7.18336 3.19995 7.50001H7.59995C7.75525 7.48846 7.90125 7.42154 8.01136 7.31142C8.12148 7.2013 8.1884 7.05531 8.19995 6.90001V0.600012C8.15226 0.443872 8.06111 0.304534 7.93715 0.198285C7.81319 0.0920352 7.66155 0.0232649 7.49995 1.23734e-05H3.09995C2.70593 -0.0133408 2.31315 0.0511002 1.94405 0.189651C1.57495 0.328202 1.23678 0.538145 0.948872 0.807477C0.660965 1.07681 0.428969 1.40025 0.266146 1.7593C0.103324 2.11835 0.0128689 2.50598 -4.64045e-05 2.90001V16.8C-0.0290254 17.1977 0.0245894 17.597 0.157426 17.9729C0.290263 18.3489 0.499448 18.6932 0.771825 18.9844C1.0442 19.2756 1.37388 19.5072 1.74012 19.6648C2.10637 19.8224 2.50126 19.9024 2.89995 19.9H7.49995C7.57344 19.915 7.64937 19.9133 7.7221 19.895C7.79484 19.8767 7.86253 19.8423 7.92015 19.7942C7.97777 19.7462 8.02385 19.6859 8.05497 19.6176C8.0861 19.5494 8.10147 19.475 8.09995 19.4Z"/>
</g>

</symbol><symbol id="icon-vk" viewBox="0 0 23 16">
<path d="M0.0700912 3.99266C0.0700912 3.37082 0.493211 3.03552 1.33945 2.98675L4.60039 3.00503C4.81925 3.00503 4.96515 3.09648 5.03811 3.27938C5.37368 4.19385 5.74938 4.98334 6.16521 5.64785C6.58103 6.31237 7.12453 7.07748 7.79568 7.94317C7.85404 8.05291 7.94888 8.10778 8.08019 8.10778C8.18233 8.10778 8.26257 8.0651 8.32093 7.97975L8.38659 7.77857L8.40848 4.6145C8.40848 4.39503 8.34647 4.24871 8.22245 4.17556C8.09843 4.1024 7.86863 4.04753 7.53305 4.01095C7.27043 3.97437 7.13912 3.84025 7.13912 3.60859C7.13912 3.55981 7.14641 3.52323 7.161 3.49885C7.4674 2.70631 8.34282 2.31004 9.78726 2.31004L11.0129 2.29175C11.5673 2.29175 12.0269 2.40758 12.3916 2.63925C12.7564 2.87091 12.9388 3.2367 12.9388 3.73661V7.88831C13.0409 7.94927 13.1357 7.97975 13.2233 7.97975C13.4421 7.97975 13.6318 7.87002 13.7923 7.65054C15.3973 5.77283 16.2654 4.51696 16.3967 3.88293C16.3967 3.87073 16.4113 3.84025 16.4405 3.79148C16.5426 3.60859 16.7104 3.45008 16.9438 3.31595C17.1773 3.18183 17.3815 3.09039 17.5566 3.04161C17.615 3.01723 17.6806 3.00503 17.7536 3.00503H21.1459L21.3647 3.02332C21.6565 3.02332 21.8827 3.13916 22.0432 3.37082C22.1015 3.44398 22.1416 3.52323 22.1635 3.60859C22.1854 3.69394 22.2 3.77929 22.2073 3.86464C22.2146 3.94999 22.2182 3.99876 22.2182 4.01095V4.13898C22.1161 4.63889 21.8571 5.17233 21.4413 5.7393C21.0255 6.30627 20.4966 6.91897 19.8546 7.57739C19.2126 8.2358 18.8114 8.66865 18.6509 8.87593C18.5196 9.02225 18.4539 9.15637 18.4539 9.2783C18.4539 9.37584 18.5123 9.48558 18.629 9.60751L21.8243 12.9728C21.9994 13.1678 22.0869 13.3812 22.0869 13.6129C22.0869 13.8933 21.9556 14.125 21.693 14.3079C21.4304 14.4908 21.1167 14.5944 20.7519 14.6188L20.3799 14.6371H17.0533C17.0387 14.6371 17.0095 14.6401 16.9657 14.6462C16.9219 14.6523 16.8928 14.6554 16.8782 14.6554C16.5572 14.6554 16.2581 14.5396 15.9809 14.3079C15.8787 14.2103 15.193 13.491 13.9236 12.1497C13.8507 12.0644 13.7485 11.9851 13.6172 11.912C13.5589 12.1071 13.4823 12.3875 13.3874 12.7533C13.2926 13.1191 13.2233 13.3812 13.1795 13.5397L13.1139 13.8506C12.968 14.2774 12.6616 14.5335 12.1947 14.6188L11.8883 14.6371H9.74349C8.53249 14.6371 7.32514 14.1738 6.12144 13.2471C4.91773 12.3204 3.8344 11.1225 2.87144 9.65323C1.90848 8.18398 1.01117 6.47392 0.179519 4.52306C0.106567 4.36455 0.0700912 4.18775 0.0700912 3.99266ZM13.2233 8.72962C12.9169 8.72962 12.6397 8.65951 12.3916 8.51929C12.1436 8.37907 12.0196 8.18703 12.0196 7.94317V3.73661C12.0196 3.49275 11.9466 3.319 11.8007 3.21536C11.6548 3.11172 11.3995 3.0599 11.0347 3.0599L9.78726 3.09648C9.15988 3.09648 8.68569 3.18793 8.36471 3.37082C9.00668 3.62687 9.32767 4.04143 9.32767 4.6145V7.83344C9.29849 8.13826 9.15258 8.39126 8.88996 8.59245C8.62733 8.79363 8.33552 8.89422 8.01454 8.89422C7.57683 8.89422 7.24125 8.71742 7.0078 8.36383C5.86975 6.92506 5.02351 5.55945 4.46908 4.267L4.27211 3.79148L1.36134 3.77319C1.17166 3.77319 1.06588 3.78233 1.044 3.80062C1.02211 3.81891 1.01117 3.87073 1.01117 3.95608C1.01117 4.06582 1.02576 4.18165 1.05494 4.30358L1.51454 5.32779C2.74013 7.97366 4.07149 10.0586 5.50864 11.5828C6.94579 13.1069 8.35741 13.8689 9.74349 13.8689H11.932C12.0196 13.8689 12.0852 13.8476 12.129 13.8049C12.1728 13.7623 12.2093 13.6799 12.2384 13.558L12.2822 13.3751L12.698 11.7657C12.8148 11.5462 12.9169 11.3999 13.0044 11.3267C13.1649 11.1926 13.3546 11.1255 13.5735 11.1255C13.9236 11.1255 14.2811 11.3023 14.6459 11.6559L16.5061 13.6312C16.6228 13.7897 16.7469 13.8689 16.8782 13.8689H20.4893C20.927 13.8689 21.1459 13.7775 21.1459 13.5946C21.1459 13.5336 21.124 13.4727 21.0802 13.4117L17.9068 10.1013C17.6588 9.84527 17.5347 9.57093 17.5347 9.2783C17.5347 8.98567 17.6515 8.70523 17.8849 8.43699C18.0746 8.19313 18.443 7.78771 18.9901 7.22074C19.5373 6.65377 20.0151 6.12338 20.4236 5.62956C20.8322 5.13575 21.1021 4.68766 21.2334 4.28529L21.299 4.04753C21.2845 4.02314 21.2772 3.98352 21.2772 3.92865C21.2772 3.87378 21.2699 3.82806 21.2553 3.79148H17.8193C17.6004 3.86464 17.4253 3.97437 17.294 4.12069L17.1627 4.46819C16.7979 5.3095 15.8423 6.60805 14.2957 8.36383C13.9893 8.60769 13.6318 8.72962 13.2233 8.72962Z"/>
</symbol></svg>